Coordinates
version=1
nRows=24
nColumns=34
inDegrees=no

Units are S.I. units (second, meters, Newtons, ...)
If the header above contains a line with 'inDegrees', this indicates whether rotational values are in degrees (yes) or radians (no).

endheader
time	pelvis_tilt	pelvis_list	pelvis_rotation	pelvis_tx	pelvis_ty	pelvis_tz	hip_flexion_r	hip_adduction_r	hip_rotation_r	knee_angle_r	ankle_angle_r	subtalar_angle_r	mtp_angle_r	hip_flexion_l	hip_adduction_l	hip_rotation_l	knee_angle_l	ankle_angle_l	subtalar_angle_l	mtp_angle_l	lumbar_extension	lumbar_bending	lumbar_rotation	arm_flex_r	arm_add_r	arm_rot_r	elbow_flex_r	pro_sup_r	arm_flex_l	arm_add_l	arm_rot_l	elbow_flex_l	pro_sup_l
0.02	0.0796259	0.00120767	0.00646554	-0.124359	0.863897	-0.222726	0.339599	-0.0127082	-0.120861	0.00663841	0.150339	0.186231	-0.00412631	-0.324261	0.01778	-0.321494	0.180922	0.494999	0.464689	-0.00415889	-0.33351	0.0565282	-0.0902397	-0.232419	-0.225348	-0.323513	0.64712	2.09704	0.247925	-0.305105	-0.0121699	0.983958	2.12825
0.03	0.0805887	-0.00252217	0.011199	-0.108852	0.871818	-0.221748	0.332639	-0.00574278	-0.116587	0.0134176	0.14543	0.162723	-0.00412568	-0.338864	0.00960537	-0.311876	0.186631	0.49563	0.454678	-0.00415826	-0.332587	0.06214	-0.0964889	-0.236082	-0.223844	-0.333219	0.639496	2.096	0.242002	-0.306847	-0.0185161	0.998931	2.13188
0.04	0.0818073	-0.00737069	0.0153754	-0.0934048	0.878889	-0.220745	0.325965	0.00213445	-0.113648	0.0229507	0.13828	0.142543	-0.00412504	-0.35155	-0.000181321	-0.302778	0.195988	0.492158	0.443157	-0.00415763	-0.33205	0.0688843	-0.101032	-0.239202	-0.222448	-0.341724	0.632588	2.0951	0.23542	-0.307516	-0.0244474	1.01209	2.13471
0.05	0.0832742	-0.0133322	0.0189879	-0.0780201	0.885153	-0.21971	0.319565	0.0109168	-0.112024	0.0351624	0.128939	0.125631	-0.00412441	-0.362304	-0.0115638	-0.294185	0.208993	0.484523	0.430103	-0.004157	-0.331893	0.0767488	-0.103865	-0.241772	-0.221165	-0.349005	0.626394	2.09433	0.228187	-0.307113	-0.0299632	1.02342	2.13672
0.06	0.0849547	-0.0203811	0.0220149	-0.0627039	0.890655	-0.21864	0.313441	0.0205742	-0.111671	0.0498763	0.117606	0.111815	-0.00412377	-0.371049	-0.0244941	-0.286059	0.225681	0.472553	0.415435	-0.00415636	-0.33208	0.0856907	-0.104985	-0.243773	-0.220004	-0.354993	0.620908	2.09371	0.220333	-0.305638	-0.035062	1.03286	2.13796
0.07	0.0867629	-0.0284584	0.0244187	-0.047468	0.895445	-0.217529	0.307648	0.0310329	-0.112539	0.066853	0.104734	0.100815	-0.00412314	-0.377584	-0.038884	-0.278353	0.246178	0.45594	0.398999	-0.00415573	-0.33253	0.0956192	-0.104388	-0.245177	-0.218982	-0.359577	0.61613	2.09325	0.211914	-0.303096	-0.0397485	1.0403	2.13849
0.08	0.088545	-0.0374632	0.0261482	-0.0323309	0.899574	-0.216372	0.302333	0.0421672	-0.114574	0.0858497	0.0910844	0.0922808	-0.0041225	-0.381543	-0.0546082	-0.271029	0.270747	0.434259	0.38055	-0.0041551	-0.333091	0.106388	-0.102087	-0.245941	-0.21812	-0.362616	0.612075	2.09298	0.203013	-0.299494	-0.0440433	1.04559	2.13842
0.09	0.0900779	-0.0472548	0.0271466	-0.0173182	0.903093	-0.215164	0.29773	0.0538087	-0.117704	0.106653	0.0776973	0.0858452	-0.00412187	-0.382393	-0.0715147	-0.264066	0.299787	0.407021	0.359752	-0.00415446	-0.33355	0.117801	-0.0981213	-0.246017	-0.217444	-0.363972	0.608786	2.09296	0.193725	-0.294853	-0.0479915	1.0486	2.13791
0.1	0.0910886	-0.0576633	0.0273617	-0.00245965	0.906051	-0.2139	0.29412	0.0657744	-0.121794	0.129056	0.0657589	0.0811582	-0.00412124	-0.379478	-0.0894417	-0.257464	0.333791	0.373762	0.336187	-0.00415383	-0.333641	0.12963	-0.0925672	-0.245359	-0.216978	-0.363542	0.606347	2.09327	0.184151	-0.289211	-0.0516638	1.04919	2.13713
0.11	0.0912898	-0.0685076	0.0267588	0.012214	0.908499	-0.212575	0.291748	0.0779057	-0.126599	0.152793	0.0564061	0.0778843	-0.0041206	-0.372108	-0.108235	-0.251243	0.37325	0.334157	0.30939	-0.0041532	-0.333086	0.14164	-0.0855431	-0.243925	-0.216744	-0.361287	0.604879	2.09403	0.174384	-0.282632	-0.0551474	1.04731	2.13626
0.12	0.0904288	-0.0796158	0.0253338	0.0266731	0.910488	-0.211188	0.290734	0.0901048	-0.131733	0.177456	0.0505138	0.0756712	-0.00411997	-0.35967	-0.127759	-0.245425	0.418536	0.288165	0.278909	-0.00415257	-0.331642	0.153618	-0.0772072	-0.24168	-0.21676	-0.357247	0.604538	2.09534	0.164514	-0.275208	-0.0585268	1.04297	2.13544
0.13	0.0883367	-0.0908403	0.0231256	0.0408921	0.912071	-0.20974	0.291006	0.102353	-0.136682	0.20244	0.0485348	0.0741153	-0.00411933	-0.34174	-0.147902	-0.240026	0.469777	0.23618	0.2444	-0.00415193	-0.329153	0.165394	-0.0677525	-0.238598	-0.217045	-0.351534	0.605496	2.09729	0.154633	-0.267069	-0.0618597	1.03625	2.13475
0.14	0.0849695	-0.102062	0.0202275	0.0548503	0.913306	-0.20824	0.292265	0.114701	-0.140867	0.226954	0.0504359	0.0727521	-0.0041187	-0.318172	-0.168555	-0.235021	0.526762	0.179175	0.205724	-0.0041513	-0.325589	0.176847	-0.0574013	-0.234657	-0.217616	-0.344308	0.607916	2.09991	0.144843	-0.258378	-0.0651543	1.02732	2.13426
0.15	0.0804312	-0.113181	0.0167948	0.0685329	0.914253	-0.206704	0.294001	0.127231	-0.143739	0.250089	0.0557442	0.0710862	-0.00411806	-0.289139	-0.189584	-0.23031	0.588894	0.118793	0.163043	-0.00415067	-0.321072	0.187897	-0.0464018	-0.229825	-0.218492	-0.335736	0.611925	2.10316	0.13527	-0.249333	-0.0683545	1.01638	2.13397
0.16	0.0749738	-0.124097	0.013049	0.0819303	0.914979	-0.205155	0.29555	0.139994	-0.14489	0.270939	0.0636845	0.0686635	-0.00411743	-0.255126	-0.210783	-0.22568	0.655198	0.0573613	0.116881	-0.00415004	-0.315866	0.198481	-0.0350293	-0.224061	-0.219694	-0.32596	0.617584	2.10688	0.126066	-0.240161	-0.0713374	1.00366	2.13385
0.17	0.0689738	-0.134686	0.00927327	0.0950378	0.915551	-0.203627	0.296183	0.152952	-0.144145	0.28873	0.0733616	0.0651669	-0.0041168	-0.216867	-0.231835	-0.220779	0.724391	-0.00222834	0.0681419	-0.0041494	-0.310356	0.208527	-0.0235864	-0.217299	-0.221242	-0.315061	0.624871	2.11084	0.117407	-0.231102	-0.0739268	0.989366	2.13391
0.18	0.0628833	-0.144776	0.0057995	0.107856	0.91604	-0.202159	0.295195	0.165936	-0.141618	0.302923	0.0839368	0.0605049	-0.00411616	-0.175257	-0.252287	-0.215132	0.794984	-0.0567666	0.0180685	-0.00414877	-0.304994	0.217936	-0.0123997	-0.209454	-0.223152	-0.303053	0.633678	2.11472	0.109474	-0.222392	-0.0759205	0.973696	2.13414
0.19	0.0571697	-0.154161	0.00298551	0.12039	0.916509	-0.200792	0.291984	0.178638	-0.1377	0.313266	0.0947561	0.0548644	-0.00411553	-0.131255	-0.271561	-0.208189	0.865409	-0.103101	-0.0318558	-0.00414814	-0.300241	0.226573	-0.00180648	-0.200427	-0.225435	-0.289892	0.643822	2.11819	0.102433	-0.214246	-0.0771271	0.956805	2.13455
0.2	0.052268	-0.162615	0.00117637	0.132652	0.91702	-0.199567	0.286105	0.190649	-0.133	0.319783	0.105408	0.0487036	-0.00411489	-0.0857904	-0.28899	-0.199416	0.934122	-0.138571	-0.0800583	-0.00414751	-0.296508	0.234275	0.00787031	-0.190119	-0.228091	-0.275513	0.655063	2.12097	0.0964047	-0.206828	-0.077407	0.938821	2.13515
0.21	0.0485299	-0.169922	0.000657174	0.144656	0.917617	-0.198518	0.277303	0.201519	-0.128237	0.322716	0.115714	0.0426852	-0.00411426	-0.0397025	-0.303895	-0.1884	0.999696	-0.161425	-0.125057	-0.00414688	-0.294103	0.240879	0.016356	-0.178445	-0.231115	-0.259868	0.667144	2.12288	0.0914426	-0.200238	-0.0767079	0.919859	2.13593
0.22	0.0461864	-0.175904	0.00160582	0.156424	0.918332	-0.197667	0.265504	0.210845	-0.124105	0.32244	0.125667	0.037561	-0.00411363	0.00628412	-0.315667	-0.174948	1.06087	-0.17111	-0.165639	-0.00414624	-0.293204	0.24624	0.0234631	-0.165357	-0.234489	-0.242967	0.679815	2.12388	0.0875123	-0.194503	-0.075089	0.90004	2.13687
0.23	0.0453298	-0.180439	0.00405347	0.167983	0.919181	-0.197025	0.250799	0.218334	-0.121148	0.319379	0.135349	0.0340356	-0.00411299	0.051564	-0.323851	-0.159151	1.11657	-0.168367	-0.200986	-0.00414561	-0.293851	0.25026	0.0291248	-0.15085	-0.238188	-0.224914	0.692863	2.12408	0.0844885	-0.189571	-0.0727275	0.879512	2.13791
0.24	0.0459127	-0.183475	0.00786193	0.17936	0.920167	-0.196584	0.233416	0.223852	-0.11966	0.313941	0.144852	0.0326407	-0.00411236	0.0956381	-0.328201	-0.141408	1.16594	-0.155094	-0.230739	-0.00414498	-0.295954	0.252886	0.0334144	-0.134976	-0.242179	-0.205906	0.70612	2.12372	0.0821634	-0.185335	-0.0699062	0.858463	2.13897
0.25	0.0477652	-0.185028	0.012725	0.190582	0.921279	-0.196323	0.21368	0.227428	-0.119635	0.306476	0.154225	0.0336461	-0.00411173	0.138098	-0.328713	-0.122387	1.20833	-0.134008	-0.254962	-0.00414435	-0.29932	0.254113	0.0365454	-0.117831	-0.246421	-0.186224	0.719471	2.12311	0.0802692	-0.181646	-0.066983	0.837127	2.13994
